STARTFONT 2.1
FONT -Adobe-Utopia-Regular-I-Normal--14-100-100-100-P-74-ISO8859-2
SIZE 10 100 100
FONTBOUNDINGBOX 19 17 -2 -4
STARTPROPERTIES 29
FOUNDRY "Adobe"
FAMILY_NAME "Utopia"
WEIGHT_NAME "Regular"
SLANT "I"
SETWIDTH_NAME "Normal"
ADD_STYLE_NAME ""
PIXEL_SIZE 14
POINT_SIZE 100
RESOLUTION_X 100
RESOLUTION_Y 100
SPACING "P"
AVERAGE_WIDTH 74
CHARSET_REGISTRY "ISO8859"
CHARSET_ENCODING "2"
CAP_HEIGHT 10
X_HEIGHT 7
RELATIVE_SETWIDTH 50
RELATIVE_WEIGHT 50
WEIGHT 130
FACE_NAME "Utopia Italic"
COPYRIGHT "Copyright (c) 1989, 1991 Adobe Systems Incorporated.  All Rights Reserved., Copyright 1996 Cub Soft"
NOTICE "Utopia is a registered trademark of Adobe Systems Incorporated."
DESTINATION 0
FONT_ASCENT 13
FONT_DESCENT 4
DEFAULT_CHAR 32
_ADOBE_PSFONT "Utopia-Italic"
_ADOBE_XFONT "-Adobe-Utopia-Regular-I-Normal--14-100-100-100-P-74-ISO8859-2"
_DEC_DEVICE_FONTNAMES "PS=Utopia-Italic"
ENDPROPERTIES
CHARS 191
STARTCHAR space
ENCODING 32
SWIDTH 225 0
DWIDTH 3 0
BBX 0 0 0 0
BITMAP
ENDCHAR
STARTCHAR exclam
ENCODING 33
SWIDTH 240 0
DWIDTH 3 0
BBX 4 10 1 0
BITMAP
10
20
20
20
20
40
40
00
40
c0
ENDCHAR
STARTCHAR quotedbl
ENCODING 34
SWIDTH 402 0
DWIDTH 6 0
BBX 4 4 3 6
BITMAP
90
a0
a0
a0
ENDCHAR
STARTCHAR numbersign
ENCODING 35
SWIDTH 530 0
DWIDTH 7 0
BBX 7 10 1 0
BITMAP
12
14
24
7e
28
28
fc
48
50
90
ENDCHAR
STARTCHAR dollar
ENCODING 36
SWIDTH 530 0
DWIDTH 7 0
BBX 7 11 1 -1
BITMAP
08
1c
6a
4a
30
18
14
a4
ac
70
20
ENDCHAR
STARTCHAR percent
ENCODING 37
SWIDTH 826 0
DWIDTH 11 0
BBX 9 11 2 -1
BITMAP
0180
3e00
5200
9400
9400
6900
1280
2480
4480
8300
8000
ENDCHAR
STARTCHAR ampersand
ENCODING 38
SWIDTH 725 0
DWIDTH 10 0
BBX 10 9 1 0
BITMAP
1c00
2200
2480
28c0
7880
8d00
8600
8700
7880
ENDCHAR
STARTCHAR apostrophe
ENCODING 39
SWIDTH 216 0
DWIDTH 3 0
BBX 2 4 2 6
BITMAP
40
40
40
80
ENDCHAR
STARTCHAR parenleft
ENCODING 40
SWIDTH 350 0
DWIDTH 5 0
BBX 5 12 2 -2
BITMAP
08
30
20
40
40
80
80
80
80
80
80
40
ENDCHAR
STARTCHAR parenright
ENCODING 41
SWIDTH 350 0
DWIDTH 5 0
BBX 5 12 0 -2
BITMAP
20
10
08
08
08
08
08
10
10
20
60
80
ENDCHAR
STARTCHAR asterisk
ENCODING 42
SWIDTH 412 0
DWIDTH 6 0
BBX 5 5 2 5
BITMAP
20
78
60
b0
00
ENDCHAR
STARTCHAR plus
ENCODING 43
SWIDTH 570 0
DWIDTH 8 0
BBX 7 7 1 0
BITMAP
10
10
10
fe
10
10
10
ENDCHAR
STARTCHAR comma
ENCODING 44
SWIDTH 265 0
DWIDTH 4 0
BBX 2 4 1 -2
BITMAP
40
40
40
80
ENDCHAR
STARTCHAR minus
ENCODING 45
SWIDTH 570 0
DWIDTH 8 0
BBX 7 1 1 3
BITMAP
fe
ENDCHAR
STARTCHAR period
ENCODING 46
SWIDTH 265 0
DWIDTH 4 0
BBX 1 1 1 0
BITMAP
80
ENDCHAR
STARTCHAR slash
ENCODING 47
SWIDTH 270 0
DWIDTH 4 0
BBX 5 10 0 0
BITMAP
08
10
10
10
20
20
40
40
40
80
ENDCHAR
STARTCHAR zero
ENCODING 48
SWIDTH 530 0
DWIDTH 7 0
BBX 7 9 1 0
BITMAP
1c
22
42
42
82
84
84
88
70
ENDCHAR
STARTCHAR one
ENCODING 49
SWIDTH 530 0
DWIDTH 7 0
BBX 5 9 1 0
BITMAP
08
30
10
10
10
10
20
20
f8
ENDCHAR
STARTCHAR two
ENCODING 50
SWIDTH 530 0
DWIDTH 7 0
BBX 8 9 0 0
BITMAP
0e
11
21
01
06
18
20
41
fe
ENDCHAR
STARTCHAR three
ENCODING 51
SWIDTH 530 0
DWIDTH 7 0
BBX 7 9 1 0
BITMAP
1c
22
06
38
04
04
84
48
30
ENDCHAR
STARTCHAR four
ENCODING 52
SWIDTH 530 0
DWIDTH 7 0
BBX 7 9 1 0
BITMAP
06
04
0c
14
24
44
fe
08
3c
ENDCHAR
STARTCHAR five
ENCODING 53
SWIDTH 530 0
DWIDTH 7 0
BBX 7 9 1 0
BITMAP
1e
20
40
78
44
04
84
88
70
ENDCHAR
STARTCHAR six
ENCODING 54
SWIDTH 530 0
DWIDTH 7 0
BBX 7 9 1 0
BITMAP
1c
22
42
78
84
84
84
88
70
ENDCHAR
STARTCHAR seven
ENCODING 55
SWIDTH 530 0
DWIDTH 7 0
BBX 7 9 2 0
BITMAP
7e
84
04
18
20
20
40
c0
40
ENDCHAR
STARTCHAR eight
ENCODING 56
SWIDTH 530 0
DWIDTH 7 0
BBX 7 9 1 0
BITMAP
1c
22
26
38
44
84
84
88
70
ENDCHAR
STARTCHAR nine
ENCODING 57
SWIDTH 530 0
DWIDTH 7 0
BBX 7 9 1 0
BITMAP
1c
22
42
46
3a
02
04
88
70
ENDCHAR
STARTCHAR colon
ENCODING 58
SWIDTH 265 0
DWIDTH 4 0
BBX 3 7 1 0
BITMAP
60
20
00
00
00
c0
80
ENDCHAR
STARTCHAR semicolon
ENCODING 59
SWIDTH 265 0
DWIDTH 4 0
BBX 3 8 1 -1
BITMAP
20
60
00
00
40
40
40
80
ENDCHAR
STARTCHAR less
ENCODING 60
SWIDTH 570 0
DWIDTH 8 0
BBX 7 8 1 -1
BITMAP
02
0e
30
40
c0
30
0c
02
ENDCHAR
STARTCHAR equal
ENCODING 61
SWIDTH 570 0
DWIDTH 8 0
BBX 7 4 1 1
BITMAP
fe
00
00
fe
ENDCHAR
STARTCHAR greater
ENCODING 62
SWIDTH 570 0
DWIDTH 8 0
BBX 7 8 1 -1
BITMAP
80
e0
18
04
06
18
60
80
ENDCHAR
STARTCHAR question
ENCODING 63
SWIDTH 425 0
DWIDTH 6 0
BBX 5 10 2 0
BITMAP
70
88
88
30
40
80
60
00
40
80
ENDCHAR
STARTCHAR at
ENCODING 64
SWIDTH 794 0
DWIDTH 11 0
BBX 10 10 2 0
BITMAP
1f00
2080
4e40
9240
9440
a440
ac80
9300
4000
3e00
ENDCHAR
STARTCHAR A
ENCODING 65
SWIDTH 624 0
DWIDTH 9 0
BBX 9 10 0 0
BITMAP
0200
0200
0600
0a00
1100
1f00
2100
2100
4100
e380
ENDCHAR
STARTCHAR B
ENCODING 66
SWIDTH 632 0
DWIDTH 9 0
BBX 8 10 1 0
BITMAP
7e
11
21
22
3c
22
41
41
42
fc
ENDCHAR
STARTCHAR C
ENCODING 67
SWIDTH 661 0
DWIDTH 9 0
BBX 8 10 2 0
BITMAP
1e
21
41
80
80
80
80
82
44
38
ENDCHAR
STARTCHAR D
ENCODING 68
SWIDTH 763 0
DWIDTH 11 0
BBX 10 10 1 0
BITMAP
3f00
1080
1040
1040
1040
2040
2080
2080
2300
fc00
ENDCHAR
STARTCHAR E
ENCODING 69
SWIDTH 596 0
DWIDTH 8 0
BBX 9 10 0 0
BITMAP
1f80
0880
0880
0800
1080
0f00
1100
2000
2080
ff00
ENDCHAR
STARTCHAR F
ENCODING 70
SWIDTH 571 0
DWIDTH 8 0
BBX 9 10 0 0
BITMAP
1f80
0880
0880
0800
1080
0f00
1100
2000
2000
f000
ENDCHAR
STARTCHAR G
ENCODING 71
SWIDTH 709 0
DWIDTH 10 0
BBX 8 10 2 0
BITMAP
1e
21
41
80
80
87
82
82
42
3c
ENDCHAR
STARTCHAR H
ENCODING 72
SWIDTH 775 0
DWIDTH 11 0
BBX 12 10 0 0
BITMAP
3cf0
1040
1040
1040
1040
1f80
2080
2080
2080
f3c0
ENDCHAR
STARTCHAR I
ENCODING 73
SWIDTH 345 0
DWIDTH 5 0
BBX 6 10 0 0
BITMAP
3c
10
10
10
10
20
20
20
20
f0
ENDCHAR
STARTCHAR J
ENCODING 74
SWIDTH 352 0
DWIDTH 5 0
BBX 7 12 -1 -2
BITMAP
1e
08
08
08
08
08
10
10
10
20
20
c0
ENDCHAR
STARTCHAR K
ENCODING 75
SWIDTH 650 0
DWIDTH 9 0
BBX 11 10 0 0
BITMAP
3de0
1080
1300
1400
1800
2800
2400
2200
2200
f180
ENDCHAR
STARTCHAR L
ENCODING 76
SWIDTH 565 0
DWIDTH 8 0
BBX 8 10 0 0
BITMAP
3c
10
10
10
10
20
20
21
21
fe
ENDCHAR
STARTCHAR M
ENCODING 77
SWIDTH 920 0
DWIDTH 13 0
BBX 14 10 0 0
BITMAP
301c
1810
1830
2850
2490
24a0
2520
4620
4420
e4f0
ENDCHAR
STARTCHAR N
ENCODING 78
SWIDTH 763 0
DWIDTH 11 0
BBX 12 10 0 0
BITMAP
3870
1820
1420
2440
2240
2240
2140
4180
4080
e080
ENDCHAR
STARTCHAR O
ENCODING 79
SWIDTH 753 0
DWIDTH 10 0
BBX 9 10 2 0
BITMAP
1e00
2100
4080
4080
8080
8080
8100
8100
4200
3c00
ENDCHAR
STARTCHAR P
ENCODING 80
SWIDTH 614 0
DWIDTH 9 0
BBX 9 10 0 0
BITMAP
1e00
0980
0880
0880
1100
0e00
1000
2000
2000
f000
ENDCHAR
STARTCHAR Q
ENCODING 81
SWIDTH 753 0
DWIDTH 10 0
BBX 9 13 2 -3
BITMAP
1e00
2100
4080
4080
8080
8080
8100
8100
4200
3c00
0800
0400
0300
ENDCHAR
STARTCHAR R
ENCODING 82
SWIDTH 640 0
DWIDTH 9 0
BBX 9 10 0 0
BITMAP
3f00
1880
0880
1080
1100
1e00
2100
2100
2100
f080
ENDCHAR
STARTCHAR S
ENCODING 83
SWIDTH 533 0
DWIDTH 7 0
BBX 7 10 1 0
BITMAP
1c
22
24
20
10
08
04
84
84
78
ENDCHAR
STARTCHAR T
ENCODING 84
SWIDTH 606 0
DWIDTH 8 0
BBX 9 10 1 0
BITMAP
7f80
4880
8880
0800
0800
1000
1000
1000
1000
7800
ENDCHAR
STARTCHAR U
ENCODING 85
SWIDTH 794 0
DWIDTH 11 0
BBX 10 10 2 0
BITMAP
f3c0
4100
4100
4100
8100
8200
8200
8200
8400
7800
ENDCHAR
STARTCHAR V
ENCODING 86
SWIDTH 637 0
DWIDTH 9 0
BBX 10 10 2 0
BITMAP
f1c0
2080
2100
2200
2200
2400
2800
2800
3000
2000
ENDCHAR
STARTCHAR W
ENCODING 87
SWIDTH 946 0
DWIDTH 13 0
BBX 14 10 2 0
BITMAP
e01c
4208
4210
4610
4520
4920
4940
5140
3180
2100
ENDCHAR
STARTCHAR X
ENCODING 88
SWIDTH 632 0
DWIDTH 9 0
BBX 11 10 0 0
BITMAP
3ce0
0880
0900
0600
0400
0400
0a00
1200
2100
f3c0
ENDCHAR
STARTCHAR Y
ENCODING 89
SWIDTH 591 0
DWIDTH 8 0
BBX 9 10 2 0
BITMAP
e380
4100
2200
2400
2800
1000
2000
2000
2000
f800
ENDCHAR
STARTCHAR Z
ENCODING 90
SWIDTH 622 0
DWIDTH 9 0
BBX 10 10 0 0
BITMAP
1fc0
1080
2100
0200
0400
0800
1000
2080
4100
ff00
ENDCHAR
STARTCHAR bracketleft
ENCODING 91
SWIDTH 330 0
DWIDTH 5 0
BBX 5 12 1 -2
BITMAP
18
20
20
20
20
40
40
40
40
40
40
c0
ENDCHAR
STARTCHAR backslash
ENCODING 92
SWIDTH 390 0
DWIDTH 5 0
BBX 4 10 2 0
BITMAP
80
80
40
40
40
20
20
20
10
10
ENDCHAR
STARTCHAR bracketright
ENCODING 93
SWIDTH 330 0
DWIDTH 5 0
BBX 5 12 0 -2
BITMAP
18
10
10
10
10
10
10
20
20
20
20
c0
ENDCHAR
STARTCHAR asciicircum
ENCODING 94
SWIDTH 570 0
DWIDTH 8 0
BBX 6 6 2 3
BITMAP
10
30
48
48
48
84
ENDCHAR
STARTCHAR underscore
ENCODING 95
SWIDTH 500 0
DWIDTH 7 0
BBX 7 1 0 -2
BITMAP
fe
ENDCHAR
STARTCHAR grave
ENCODING 96
SWIDTH 400 0
DWIDTH 6 0
BBX 3 3 3 7
BITMAP
80
40
20
ENDCHAR
STARTCHAR a
ENCODING 97
SWIDTH 561 0
DWIDTH 8 0
BBX 7 7 1 0
BITMAP
1c
24
44
88
98
aa
4c
ENDCHAR
STARTCHAR b
ENCODING 98
SWIDTH 559 0
DWIDTH 8 0
BBX 7 10 1 0
BITMAP
10
60
20
4c
52
62
42
44
4c
b0
ENDCHAR
STARTCHAR c
ENCODING 99
SWIDTH 441 0
DWIDTH 6 0
BBX 6 7 1 0
BITMAP
38
44
40
80
80
88
70
ENDCHAR
STARTCHAR d
ENCODING 100
SWIDTH 587 0
DWIDTH 8 0
BBX 8 10 1 0
BITMAP
01
03
01
1e
22
42
84
8c
95
66
ENDCHAR
STARTCHAR e
ENCODING 101
SWIDTH 453 0
DWIDTH 6 0
BBX 6 7 1 0
BITMAP
38
44
4c
f0
80
88
70
ENDCHAR
STARTCHAR f
ENCODING 102
SWIDTH 315 0
DWIDTH 4 0
BBX 8 13 -1 -3
BITMAP
06
09
08
3e
08
10
10
10
10
20
20
a0
40
ENDCHAR
STARTCHAR g
ENCODING 103
SWIDTH 499 0
DWIDTH 7 0
BBX 7 10 1 -3
BITMAP
3a
44
44
44
38
78
c4
84
8c
70
ENDCHAR
STARTCHAR h
ENCODING 104
SWIDTH 607 0
DWIDTH 8 0
BBX 8 10 1 0
BITMAP
10
60
20
24
2a
32
22
44
45
c6
ENDCHAR
STARTCHAR i
ENCODING 105
SWIDTH 317 0
DWIDTH 4 0
BBX 3 10 2 0
BITMAP
20
20
00
e0
40
40
40
80
a0
c0
ENDCHAR
STARTCHAR j
ENCODING 106
SWIDTH 309 0
DWIDTH 4 0
BBX 5 13 0 -3
BITMAP
18
08
00
08
10
10
10
10
10
10
20
a0
40
ENDCHAR
STARTCHAR k
ENCODING 107
SWIDTH 545 0
DWIDTH 8 0
BBX 7 10 1 0
BITMAP
10
60
20
46
58
50
50
52
54
88
ENDCHAR
STARTCHAR l
ENCODING 108
SWIDTH 306 0
DWIDTH 4 0
BBX 3 10 2 0
BITMAP
20
60
20
40
40
40
40
80
a0
c0
ENDCHAR
STARTCHAR m
ENCODING 109
SWIDTH 912 0
DWIDTH 13 0
BBX 12 7 1 0
BITMAP
6440
2aa0
3320
2220
4440
4450
c460
ENDCHAR
STARTCHAR n
ENCODING 110
SWIDTH 618 0
DWIDTH 9 0
BBX 8 7 1 0
BITMAP
64
2a
32
22
44
45
c6
ENDCHAR
STARTCHAR o
ENCODING 111
SWIDTH 537 0
DWIDTH 7 0
BBX 7 7 1 0
BITMAP
1c
62
42
82
84
8c
70
ENDCHAR
STARTCHAR p
ENCODING 112
SWIDTH 590 0
DWIDTH 8 0
BBX 7 10 1 -3
BITMAP
ac
52
62
42
44
4c
b0
80
80
80
ENDCHAR
STARTCHAR q
ENCODING 113
SWIDTH 559 0
DWIDTH 8 0
BBX 7 10 1 -3
BITMAP
1a
24
44
84
8c
b4
44
08
08
10
ENDCHAR
STARTCHAR r
ENCODING 114
SWIDTH 402 0
DWIDTH 6 0
BBX 6 7 1 0
BITMAP
6c
30
20
20
40
40
c0
ENDCHAR
STARTCHAR s
ENCODING 115
SWIDTH 389 0
DWIDTH 5 0
BBX 5 7 1 0
BITMAP
30
48
40
20
10
90
60
ENDCHAR
STARTCHAR t
ENCODING 116
SWIDTH 341 0
DWIDTH 5 0
BBX 4 9 2 0
BITMAP
20
40
f0
40
40
40
80
a0
c0
ENDCHAR
STARTCHAR u
ENCODING 117
SWIDTH 618 0
DWIDTH 9 0
BBX 7 7 2 0
BITMAP
c4
44
44
88
98
aa
4c
ENDCHAR
STARTCHAR v
ENCODING 118
SWIDTH 510 0
DWIDTH 7 0
BBX 6 7 2 0
BITMAP
c4
44
44
88
88
b0
40
ENDCHAR
STARTCHAR w
ENCODING 119
SWIDTH 785 0
DWIDTH 11 0
BBX 10 7 2 0
BITMAP
c440
4440
4440
8840
9880
ab00
4400
ENDCHAR
STARTCHAR x
ENCODING 120
SWIDTH 516 0
DWIDTH 7 0
BBX 8 7 0 0
BITMAP
33
14
08
08
18
26
c4
ENDCHAR
STARTCHAR y
ENCODING 121
SWIDTH 468 0
DWIDTH 6 0
BBX 7 10 0 -3
BITMAP
62
12
12
14
14
14
18
10
a0
40
ENDCHAR
STARTCHAR z
ENCODING 122
SWIDTH 468 0
DWIDTH 6 0
BBX 7 7 1 0
BITMAP
3e
44
08
10
22
64
98
ENDCHAR
STARTCHAR braceleft
ENCODING 123
SWIDTH 340 0
DWIDTH 5 0
BBX 5 12 2 -2
BITMAP
18
20
20
20
20
c0
40
40
40
80
80
40
ENDCHAR
STARTCHAR bar
ENCODING 124
SWIDTH 270 0
DWIDTH 4 0
BBX 1 10 2 0
BITMAP
80
80
80
80
80
80
80
80
80
80
ENDCHAR
STARTCHAR braceright
ENCODING 125
SWIDTH 340 0
DWIDTH 5 0
BBX 5 12 0 -2
BITMAP
10
08
08
10
10
08
30
20
20
20
20
c0
ENDCHAR
STARTCHAR asciitilde
ENCODING 126
SWIDTH 570 0
DWIDTH 8 0
BBX 6 2 2 2
BITMAP
64
98
ENDCHAR
STARTCHAR nobreakspace
ENCODING 160
SWIDTH 225 0
DWIDTH 3 0
BBX 0 0 0 0
BITMAP
ENDCHAR
STARTCHAR Aogonek
ENCODING 161
SWIDTH 624 0
DWIDTH 9 0
BBX 9 14 0 -4
BITMAP
0200
0200
0600
0a00
1100
1f00
2100
2100
4100
e380
0800
1000
1000
0c00
ENDCHAR
STARTCHAR breve
ENCODING 162
SWIDTH 400 0
DWIDTH 6 0
BBX 4 3 3 7
BITMAP
90
90
60
ENDCHAR
STARTCHAR Lstroke
ENCODING 163
SWIDTH 571 0
DWIDTH 8 0
BBX 8 10 1 0
BITMAP
3c
10
10
14
18
10
60
21
21
fe
ENDCHAR
STARTCHAR currency
ENCODING 164
SWIDTH 530 0
DWIDTH 7 0
BBX 6 7 2 1
BITMAP
b4
48
84
84
84
48
b4
ENDCHAR
STARTCHAR Lcaron
ENCODING 165
SWIDTH 648 0
DWIDTH 9 0
BBX 9 11 0 0
BITMAP
0080
3c80
1080
1100
1000
1000
2000
2000
2100
2100
fe00
ENDCHAR
STARTCHAR Sacute
ENCODING 166
SWIDTH 533 0
DWIDTH 7 0
BBX 7 14 1 0
BITMAP
02
04
08
00
1c
22
24
20
10
08
04
84
84
78
ENDCHAR
STARTCHAR section
ENCODING 167
SWIDTH 530 0
DWIDTH 7 0
BBX 6 12 2 -2
BITMAP
18
24
20
e0
90
88
44
24
18
10
90
60
ENDCHAR
STARTCHAR diaeresis
ENCODING 168
SWIDTH 400 0
DWIDTH 6 0
BBX 4 1 3 8
BITMAP
90
ENDCHAR
STARTCHAR Scaron
ENCODING 169
SWIDTH 533 0
DWIDTH 7 0
BBX 7 13 1 0
BITMAP
16
08
00
1c
22
24
20
10
08
04
84
84
78
ENDCHAR
STARTCHAR Scedilla
ENCODING 170
SWIDTH 533 0
DWIDTH 7 0
BBX 7 14 1 -4
BITMAP
1c
22
24
20
10
08
04
84
84
78
08
10
08
10
ENDCHAR
STARTCHAR Tcaron
ENCODING 171
SWIDTH 606 0
DWIDTH 8 0
BBX 9 13 1 0
BITMAP
0b00
0400
0000
7f80
4880
8880
0800
0800
1000
1000
1000
1000
7800
ENDCHAR
STARTCHAR Zacute
ENCODING 172
SWIDTH 622 0
DWIDTH 9 0
BBX 10 14 0 0
BITMAP
0080
0100
0200
0000
1fc0
1080
2100
0200
0400
0800
1000
2080
4100
ff00
ENDCHAR
STARTCHAR hyphen
ENCODING 173
SWIDTH 392 0
DWIDTH 5 0
BBX 4 1 1 3
BITMAP
f0
ENDCHAR
STARTCHAR Zcaron
ENCODING 174
SWIDTH 622 0
DWIDTH 9 0
BBX 10 13 0 0
BITMAP
0580
0200
0000
1fc0
1080
2100
0200
0400
0800
1000
2080
4100
ff00
ENDCHAR
STARTCHAR Zabovedot
ENCODING 175
SWIDTH 622 0
DWIDTH 9 0
BBX 10 12 0 0
BITMAP
0200
0000
1fc0
1080
2100
0200
0400
0800
1000
2080
4100
ff00
ENDCHAR
STARTCHAR degree
ENCODING 176
SWIDTH 400 0
DWIDTH 6 0
BBX 5 4 2 5
BITMAP
70
88
88
70
ENDCHAR
STARTCHAR aogonek
ENCODING 177
SWIDTH 561 0
DWIDTH 8 0
BBX 7 11 1 -4
BITMAP
1c
24
44
88
98
aa
4c
10
20
20
18
ENDCHAR
STARTCHAR ogonek
ENCODING 178
SWIDTH 350 0
DWIDTH 5 0
BBX 3 4 1 -3
BITMAP
40
80
80
60
ENDCHAR
STARTCHAR lstroke
ENCODING 179
SWIDTH 318 0
DWIDTH 4 0
BBX 4 10 2 0
BITMAP
20
60
20
40
70
c0
40
80
a0
c0
ENDCHAR
STARTCHAR acute
ENCODING 180
SWIDTH 400 0
DWIDTH 6 0
BBX 3 3 3 7
BITMAP
20
40
80
ENDCHAR
STARTCHAR lcaron
ENCODING 181
SWIDTH 504 0
DWIDTH 7 0
BBX 6 11 2 0
BITMAP
04
24
64
28
40
40
40
40
80
a0
c0
ENDCHAR
STARTCHAR sacute
ENCODING 182
SWIDTH 389 0
DWIDTH 5 0
BBX 5 11 1 0
BITMAP
08
10
20
00
30
48
40
20
10
90
60
ENDCHAR
STARTCHAR caron
ENCODING 183
SWIDTH 400 0
DWIDTH 6 0
BBX 4 2 4 8
BITMAP
b0
40
ENDCHAR
STARTCHAR cedilla
ENCODING 184
SWIDTH 400 0
DWIDTH 6 0
BBX 2 4 2 -3
BITMAP
40
80
40
80
ENDCHAR
STARTCHAR scaron
ENCODING 185
SWIDTH 389 0
DWIDTH 5 0
BBX 5 10 1 0
BITMAP
58
20
00
30
48
40
20
10
90
60
ENDCHAR
STARTCHAR scedilla
ENCODING 186
SWIDTH 389 0
DWIDTH 5 0
BBX 5 11 1 -4
BITMAP
30
48
40
20
10
90
60
10
20
10
20
ENDCHAR
STARTCHAR tcaron
ENCODING 187
SWIDTH 504 0
DWIDTH 7 0
BBX 6 12 2 0
BITMAP
04
04
04
28
40
f0
40
40
40
80
a0
c0
ENDCHAR
STARTCHAR zacute
ENCODING 188
SWIDTH 468 0
DWIDTH 6 0
BBX 7 11 1 0
BITMAP
04
08
10
00
3e
44
08
10
22
64
98
ENDCHAR
STARTCHAR doubleacute
ENCODING 189
SWIDTH 400 0
DWIDTH 6 0
BBX 4 3 3 7
BITMAP
90
a0
a0
ENDCHAR
STARTCHAR zcaron
ENCODING 190
SWIDTH 468 0
DWIDTH 6 0
BBX 7 10 1 0
BITMAP
2c
10
00
3e
44
08
10
22
64
98
ENDCHAR
STARTCHAR zabovedot
ENCODING 191
SWIDTH 468 0
DWIDTH 6 0
BBX 7 9 1 0
BITMAP
10
00
3e
44
08
10
22
64
98
ENDCHAR
STARTCHAR Racute
ENCODING 192
SWIDTH 640 0
DWIDTH 9 0
BBX 9 14 0 0
BITMAP
0100
0200
0400
0000
3f00
1880
0880
1080
1100
1e00
2100
2100
2100
f080
ENDCHAR
STARTCHAR Aacute
ENCODING 193
SWIDTH 624 0
DWIDTH 9 0
BBX 9 12 0 0
BITMAP
0080
0700
0000
0200
0600
0900
1100
1f00
2100
2100
4100
e380
ENDCHAR
STARTCHAR Acircumflex
ENCODING 194
SWIDTH 624 0
DWIDTH 9 0
BBX 9 12 0 0
BITMAP
0200
0500
0880
0200
0600
0900
1100
1f00
2100
2100
4100
e380
ENDCHAR
STARTCHAR Abreve
ENCODING 195
SWIDTH 624 0
DWIDTH 9 0
BBX 9 14 0 0
BITMAP
0480
0480
0300
0000
0200
0200
0600
0a00
1100
1f00
2100
2100
4100
e380
ENDCHAR
STARTCHAR Adiaeresis
ENCODING 196
SWIDTH 624 0
DWIDTH 9 0
BBX 9 12 0 0
BITMAP
0480
0000
0300
0300
0500
0900
0900
1f00
2100
2100
4100
e380
ENDCHAR
STARTCHAR Lacute
ENCODING 197
SWIDTH 565 0
DWIDTH 8 0
BBX 8 14 0 0
BITMAP
02
04
08
00
3c
10
10
10
10
20
20
21
21
fe
ENDCHAR
STARTCHAR Cacute
ENCODING 198
SWIDTH 661 0
DWIDTH 9 0
BBX 8 14 2 0
BITMAP
01
02
04
00
1e
21
41
80
80
80
80
82
44
38
ENDCHAR
STARTCHAR Ccedilla
ENCODING 199
SWIDTH 661 0
DWIDTH 9 0
BBX 8 14 2 -4
BITMAP
1e
21
41
80
80
80
80
82
44
38
20
20
10
20
ENDCHAR
STARTCHAR Ccaron
ENCODING 200
SWIDTH 661 0
DWIDTH 9 0
BBX 8 13 2 0
BITMAP
0b
04
00
1e
21
41
80
80
80
80
82
44
38
ENDCHAR
STARTCHAR Eacute
ENCODING 201
SWIDTH 596 0
DWIDTH 8 0
BBX 9 12 0 0
BITMAP
0080
0700
1f80
0880
0880
0800
1080
0f00
1100
2000
2080
ff00
ENDCHAR
STARTCHAR Eogonek
ENCODING 202
SWIDTH 596 0
DWIDTH 8 0
BBX 9 14 0 -4
BITMAP
1f80
0880
0880
0800
1080
0f00
1100
2000
2080
ff00
0800
1000
1000
0c00
ENDCHAR
STARTCHAR Ediaeresis
ENCODING 203
SWIDTH 596 0
DWIDTH 8 0
BBX 9 12 0 0
BITMAP
0900
0000
1f80
0880
0880
0800
1080
0f00
1100
2000
2080
ff00
ENDCHAR
STARTCHAR Ecaron
ENCODING 204
SWIDTH 596 0
DWIDTH 8 0
BBX 9 13 0 0
BITMAP
0580
0200
0000
1f80
0880
0880
0800
1080
0f00
1100
2000
2080
ff00
ENDCHAR
STARTCHAR Iacute
ENCODING 205
SWIDTH 345 0
DWIDTH 5 0
BBX 6 12 1 0
BITMAP
0c
30
3c
10
10
10
20
20
20
20
20
f0
ENDCHAR
STARTCHAR Icircumflex
ENCODING 206
SWIDTH 345 0
DWIDTH 5 0
BBX 6 12 1 0
BITMAP
18
28
7c
10
10
10
20
20
20
20
20
f0
ENDCHAR
STARTCHAR Dcaron
ENCODING 207
SWIDTH 763 0
DWIDTH 11 0
BBX 10 13 1 0
BITMAP
0b00
0400
0000
3f00
1080
1040
1040
1040
2040
2080
2080
2300
fc00
ENDCHAR
STARTCHAR Dstroke
ENCODING 208
SWIDTH 770 0
DWIDTH 11 0
BBX 10 10 1 0
BITMAP
3f00
1080
1040
1040
1040
7c40
2040
2080
2100
fe00
ENDCHAR
STARTCHAR Nacute
ENCODING 209
SWIDTH 763 0
DWIDTH 11 0
BBX 12 14 0 0
BITMAP
0040
0080
0100
0000
3870
1820
1420
2440
2240
2240
2140
4180
4080
e080
ENDCHAR
STARTCHAR Ncaron
ENCODING 210
SWIDTH 763 0
DWIDTH 11 0
BBX 12 13 0 0
BITMAP
02c0
0100
0000
3870
1820
1420
2440
2240
2240
2140
4180
4080
e080
ENDCHAR
STARTCHAR Oacute
ENCODING 211
SWIDTH 753 0
DWIDTH 10 0
BBX 9 12 2 0
BITMAP
0100
0600
1e00
2100
4080
4080
8080
8080
8100
8100
4200
3c00
ENDCHAR
STARTCHAR Ocircumflex
ENCODING 212
SWIDTH 753 0
DWIDTH 10 0
BBX 9 12 2 0
BITMAP
0600
0900
1e00
2100
4080
4080
8080
8080
8100
8100
4200
3c00
ENDCHAR
STARTCHAR Odoubleacute
ENCODING 213
SWIDTH 753 0
DWIDTH 10 0
BBX 9 14 2 0
BITMAP
0900
0a00
0a00
0000
1e00
2100
4080
4080
8080
8080
8100
8100
4200
3c00
ENDCHAR
STARTCHAR Odiaeresis
ENCODING 214
SWIDTH 753 0
DWIDTH 10 0
BBX 9 12 2 0
BITMAP
0a00
0000
1e00
2100
4080
4080
8080
8080
8100
8100
4200
3c00
ENDCHAR
STARTCHAR multiply
ENCODING 215
SWIDTH 570 0
DWIDTH 8 0
BBX 6 6 2 0
BITMAP
84
48
30
30
48
84
ENDCHAR
STARTCHAR Rcaron
ENCODING 216
SWIDTH 640 0
DWIDTH 9 0
BBX 9 13 0 0
BITMAP
0b00
0400
0000
3f00
1880
0880
1080
1100
1e00
2100
2100
2100
f080
ENDCHAR
STARTCHAR Uring
ENCODING 217
SWIDTH 794 0
DWIDTH 11 0
BBX 10 15 2 0
BITMAP
0400
0a00
0a00
0400
0000
f3c0
4100
4100
4100
8100
8200
8200
8200
8400
7800
ENDCHAR
STARTCHAR Uacute
ENCODING 218
SWIDTH 794 0
DWIDTH 11 0
BBX 10 12 2 0
BITMAP
0700
0800
e3c0
4100
4100
4100
8100
8200
8200
8200
8400
7800
ENDCHAR
STARTCHAR Udoubleacute
ENCODING 219
SWIDTH 794 0
DWIDTH 11 0
BBX 10 14 2 0
BITMAP
0900
0a00
0a00
0000
f3c0
4100
4100
4100
8100
8200
8200
8200
8400
7800
ENDCHAR
STARTCHAR Udiaeresis
ENCODING 220
SWIDTH 794 0
DWIDTH 11 0
BBX 11 12 2 0
BITMAP
0900
0000
f1e0
6080
4080
4080
4100
8100
8100
8200
4200
3c00
ENDCHAR
STARTCHAR Yacute
ENCODING 221
SWIDTH 591 0
DWIDTH 8 0
BBX 9 12 2 0
BITMAP
0700
0800
e380
4100
2200
2400
2800
1000
2000
2000
2000
f800
ENDCHAR
STARTCHAR Tcedilla
ENCODING 222
SWIDTH 606 0
DWIDTH 8 0
BBX 9 14 1 -4
BITMAP
7f80
4880
8880
0800
0800
1000
1000
1000
1000
7800
0400
0800
0400
0800
ENDCHAR
STARTCHAR ssharp
ENCODING 223
SWIDTH 577 0
DWIDTH 8 0
BBX 10 13 -1 -3
BITMAP
0380
0440
0840
1980
0a00
1200
1100
1080
1480
2300
2000
a000
4000
ENDCHAR
STARTCHAR racute
ENCODING 224
SWIDTH 402 0
DWIDTH 6 0
BBX 6 11 1 0
BITMAP
04
08
10
00
6c
30
20
20
40
40
c0
ENDCHAR
STARTCHAR aacute
ENCODING 225
SWIDTH 561 0
DWIDTH 8 0
BBX 7 10 1 0
BITMAP
06
08
00
1c
24
44
88
98
aa
4c
ENDCHAR
STARTCHAR acircumflex
ENCODING 226
SWIDTH 561 0
DWIDTH 8 0
BBX 7 10 1 0
BITMAP
08
14
00
1c
24
44
88
98
aa
4c
ENDCHAR
STARTCHAR abreve
ENCODING 227
SWIDTH 561 0
DWIDTH 8 0
BBX 7 11 1 0
BITMAP
24
24
18
00
1c
24
44
88
98
aa
4c
ENDCHAR
STARTCHAR adiaeresis
ENCODING 228
SWIDTH 561 0
DWIDTH 8 0
BBX 7 9 1 0
BITMAP
12
00
1e
24
44
88
98
aa
4c
ENDCHAR
STARTCHAR lacute
ENCODING 229
SWIDTH 306 0
DWIDTH 4 0
BBX 5 14 2 0
BITMAP
08
10
20
00
20
60
20
40
40
40
40
80
a0
c0
ENDCHAR
STARTCHAR cacute
ENCODING 230
SWIDTH 441 0
DWIDTH 6 0
BBX 6 11 1 0
BITMAP
04
08
10
00
38
44
40
80
80
88
70
ENDCHAR
STARTCHAR ccedilla
ENCODING 231
SWIDTH 441 0
DWIDTH 6 0
BBX 6 11 1 -4
BITMAP
38
44
40
80
80
88
70
40
40
20
c0
ENDCHAR
STARTCHAR ccaron
ENCODING 232
SWIDTH 441 0
DWIDTH 6 0
BBX 6 10 1 0
BITMAP
2c
10
00
38
44
40
80
80
88
70
ENDCHAR
STARTCHAR eacute
ENCODING 233
SWIDTH 453 0
DWIDTH 6 0
BBX 6 10 1 0
BITMAP
04
18
00
38
44
4c
f0
80
88
70
ENDCHAR
STARTCHAR eogonek
ENCODING 234
SWIDTH 453 0
DWIDTH 6 0
BBX 6 11 1 -4
BITMAP
38
44
4c
f0
80
88
70
20
40
40
30
ENDCHAR
STARTCHAR ediaeresis
ENCODING 235
SWIDTH 453 0
DWIDTH 6 0
BBX 6 9 1 0
BITMAP
24
00
18
64
4c
f0
80
88
70
ENDCHAR
STARTCHAR ecaron
ENCODING 236
SWIDTH 453 0
DWIDTH 6 0
BBX 6 10 1 0
BITMAP
2c
10
00
38
44
4c
f0
80
88
70
ENDCHAR
STARTCHAR iacute
ENCODING 237
SWIDTH 317 0
DWIDTH 4 0
BBX 4 10 2 0
BITMAP
10
e0
00
e0
40
40
40
80
a0
c0
ENDCHAR
STARTCHAR icircumflex
ENCODING 238
SWIDTH 317 0
DWIDTH 4 0
BBX 4 10 2 0
BITMAP
20
d0
00
e0
40
40
40
80
a0
c0
ENDCHAR
STARTCHAR dcaron
ENCODING 239
SWIDTH 792 0
DWIDTH 11 0
BBX 11 11 1 0
BITMAP
0020
0120
0320
0140
1e00
2200
4200
8400
8c00
9500
6600
ENDCHAR
STARTCHAR dstroke
ENCODING 240
SWIDTH 792 0
DWIDTH 11 0
BBX 11 10 1 0
BITMAP
0100
0100
ffe0
1e00
2200
4200
8400
8c00
9500
6600
ENDCHAR
STARTCHAR nacute
ENCODING 241
SWIDTH 618 0
DWIDTH 9 0
BBX 8 11 1 0
BITMAP
04
08
10
00
64
2a
32
22
44
45
c6
ENDCHAR
STARTCHAR ncaron
ENCODING 242
SWIDTH 618 0
DWIDTH 9 0
BBX 8 10 1 0
BITMAP
2c
10
00
64
2a
32
22
44
45
c6
ENDCHAR
STARTCHAR oacute
ENCODING 243
SWIDTH 537 0
DWIDTH 7 0
BBX 7 10 1 0
BITMAP
02
1c
00
1c
62
42
82
84
8c
70
ENDCHAR
STARTCHAR ocircumflex
ENCODING 244
SWIDTH 537 0
DWIDTH 7 0
BBX 7 10 1 0
BITMAP
0c
32
00
1c
62
42
82
84
8c
70
ENDCHAR
STARTCHAR odoubleacute
ENCODING 245
SWIDTH 537 0
DWIDTH 7 0
BBX 7 11 1 0
BITMAP
24
28
28
00
1c
62
42
82
84
8c
70
ENDCHAR
STARTCHAR odiaeresis
ENCODING 246
SWIDTH 537 0
DWIDTH 7 0
BBX 7 9 1 0
BITMAP
12
00
1c
22
42
82
84
8c
70
ENDCHAR
STARTCHAR division
ENCODING 247
SWIDTH 570 0
DWIDTH 8 0
BBX 6 5 2 1
BITMAP
20
00
fc
00
20
ENDCHAR
STARTCHAR rcaron
ENCODING 248
SWIDTH 402 0
DWIDTH 6 0
BBX 6 10 1 0
BITMAP
2c
10
00
6c
30
20
20
40
40
c0
ENDCHAR
STARTCHAR uring
ENCODING 249
SWIDTH 618 0
DWIDTH 9 0
BBX 7 12 2 0
BITMAP
20
50
50
20
00
c4
44
44
88
98
aa
4c
ENDCHAR
STARTCHAR uacute
ENCODING 250
SWIDTH 618 0
DWIDTH 9 0
BBX 7 10 2 0
BITMAP
04
08
10
c4
44
44
88
98
aa
4c
ENDCHAR
STARTCHAR udoubleacute
ENCODING 251
SWIDTH 618 0
DWIDTH 9 0
BBX 7 11 2 0
BITMAP
48
50
50
00
c4
44
44
88
98
aa
4c
ENDCHAR
STARTCHAR udiaeresis
ENCODING 252
SWIDTH 618 0
DWIDTH 9 0
BBX 7 9 2 0
BITMAP
24
00
c4
44
44
88
98
aa
4c
ENDCHAR
STARTCHAR yacute
ENCODING 253
SWIDTH 468 0
DWIDTH 6 0
BBX 7 13 0 -3
BITMAP
02
04
08
62
12
12
14
14
14
18
10
a0
40
ENDCHAR
STARTCHAR tcedilla
ENCODING 254
SWIDTH 341 0
DWIDTH 5 0
BBX 4 13 2 -4
BITMAP
20
40
f0
40
40
40
80
a0
c0
20
40
20
40
ENDCHAR
STARTCHAR abovedot
ENCODING 255
SWIDTH 402 0
DWIDTH 6 0
BBX 1 1 4 8
BITMAP
80
ENDCHAR
ENDFONT
